<svg width="58" height="58" viewBox="0 0 58 58" fill="none" xmlns="http://www.w3.org/2000/svg">
<g filter="url(#filter0_d_0_4603)">
<rect x="4" width="50" height="50" rx="15" fill="#F16718"/>
<rect x="17" y="13" width="24" height="24" fill="white"/>
<path fill-rule="evenodd" clip-rule="evenodd" d="M23.3781 23.0209C23.3781 23.134 23.3144 23.2 23.2051 23.2H21.8393C21.73 23.2 21.6663 23.134 21.6663 23.0209V18.2029C21.6663 18.1557 21.639 18.1274 21.5935 18.1274H20.173C20.0637 18.1274 20 18.0614 20 17.9483V16.7791C20 16.666 20.0637 16.6 20.173 16.6H24.9169C25.0262 16.6 25.0899 16.666 25.0899 16.7791V17.9483C25.0899 18.0614 25.0262 18.1274 24.9169 18.1274H23.451C23.4054 18.1274 23.3781 18.1557 23.3781 18.2029V23.0209ZM27.3208 23.0209C27.3208 23.134 27.257 23.2 27.1478 23.2H25.7819C25.6727 23.2 25.6089 23.134 25.6089 23.0209V16.7791C25.6089 16.666 25.6727 16.6 25.7819 16.6H27.1387C27.2297 16.6 27.3026 16.6377 27.3481 16.7226L28.4498 18.58C28.4772 18.6366 28.5318 18.6366 28.5591 18.58L29.6609 16.7226C29.7064 16.6377 29.7792 16.6 29.8703 16.6H31.227C31.3363 16.6 31.4 16.666 31.4 16.7791V23.0209C31.4 23.134 31.3363 23.2 31.227 23.2H29.8612C29.7519 23.2 29.6882 23.134 29.6882 23.0209V19.6926C29.6882 19.6171 29.6335 19.6077 29.5971 19.6643L29.0326 20.6354C28.9871 20.7203 28.9142 20.758 28.8232 20.758H28.1858C28.0947 20.758 28.0219 20.7203 27.9764 20.6354L27.4118 19.6643C27.3754 19.6077 27.3208 19.6171 27.3208 19.6926V23.0209Z" fill="#F16718"/>
</g>
<defs>
<filter id="filter0_d_0_4603" x="0" y="0" width="58" height="58" filterUnits="userSpaceOnUse" color-interpolation-filters="sRGB">
<feFlood flood-opacity="0" result="BackgroundImageFix"/>
<feColorMatrix in="SourceAlpha" type="matrix" values="0 0 0 0 0 0 0 0 0 0 0 0 0 0 0 0 0 0 127 0" result="hardAlpha"/>
<feOffset dy="4"/>
<feGaussianBlur stdDeviation="2"/>
<feComposite in2="hardAlpha" operator="out"/>
<feColorMatrix type="matrix" values="0 0 0 0 0 0 0 0 0 0 0 0 0 0 0 0 0 0 0.25 0"/>
<feBlend mode="normal" in2="BackgroundImageFix" result="effect1_dropShadow_0_4603"/>
<feBlend mode="normal" in="SourceGraphic" in2="effect1_dropShadow_0_4603" result="shape"/>
</filter>
</defs>
</svg>
